<?xml version="1.0" encoding="utf-8"?>
<!-- Generator: Adobe Illustrator 15.1.0, SVG Export Plug-In . SVG Version: 6.00 Build 0)  -->
<!DOCTYPE svg PUBLIC "-//W3C//DTD SVG 1.1//EN" "http://www.w3.org/Graphics/SVG/1.1/DTD/svg11.dtd">
<svg version="1.1" xmlns="http://www.w3.org/2000/svg" xmlns:xlink="http://www.w3.org/1999/xlink" x="0px" y="0px" width="600px"
	 height="1700px" viewBox="0 0 600 1700" enable-background="new 0 0 600 1700" xml:space="preserve">
<g id="background">
</g>
<g id="Icons">
	<g>
		<path fill="#FFFFFF" d="M200.012,441c-22.607,0-40.999-18.392-40.999-41s18.392-41,40.999-41c22.608,0,41.001,18.392,41.001,41
			S222.62,441,200.012,441z M200.012,361c-21.504,0-38.999,17.495-38.999,39s17.495,39,38.999,39c21.505,0,39.001-17.495,39.001-39
			S221.517,361,200.012,361z"/>
		<path fill="#FFFFFF" d="M191.328,393.904h3.721v-3.616c0-1.596,0.04-4.056,1.198-5.579c1.221-1.613,2.896-2.71,5.778-2.71
			c4.695,0,6.672,0.67,6.672,0.67l-0.931,5.514c0,0-1.55-0.449-2.998-0.449c-1.448,0-2.744,0.519-2.744,1.965v4.205h5.936
			l-0.414,5.386h-5.521v18.709h-6.976V399.29h-3.721V393.904z"/>
	</g>
</g>
</svg>
