<?xml version="1.0" encoding="utf-8"?>
<!-- Generator: Adobe Illustrator 15.1.0, SVG Export Plug-In . SVG Version: 6.00 Build 0)  -->
<!DOCTYPE svg PUBLIC "-//W3C//DTD SVG 1.1//EN" "http://www.w3.org/Graphics/SVG/1.1/DTD/svg11.dtd">
<svg version="1.1" xmlns="http://www.w3.org/2000/svg" xmlns:xlink="http://www.w3.org/1999/xlink" x="0px" y="0px" width="600px"
	 height="1700px" viewBox="0 0 600 1700" enable-background="new 0 0 600 1700" xml:space="preserve">
<g id="background">
</g>
<g id="Icons">
	<g>
		<path fill="#FFFFFF" d="M400.061,440.999c-22.607,0-41-18.392-41-41s18.393-41,41-41c22.606,0,40.998,18.392,40.998,41
			S422.667,440.999,400.061,440.999z M400.061,361c-21.505,0-39,17.495-39,39s17.495,39,39,39c21.504,0,38.998-17.495,38.998-39
			S421.564,361,400.061,361z"/>
		<path fill="#FFFFFF" d="M418.06,390.782c-1.325,0.587-2.749,0.984-4.242,1.163c1.527-0.914,2.698-2.36,3.247-4.084
			c-1.428,0.846-3.006,1.46-4.692,1.79c-1.343-1.435-3.265-2.332-5.39-2.332c-4.077,0-7.384,3.308-7.384,7.385
			c0,0.58,0.062,1.142,0.19,1.682c-6.137-0.309-11.578-3.246-15.225-7.717c-0.636,1.094-0.998,2.362-0.998,3.716
			c0,2.56,1.304,4.821,3.284,6.147c-1.208-0.037-2.349-0.373-3.347-0.922v0.09c0,3.581,2.547,6.565,5.927,7.242
			c-0.619,0.173-1.271,0.26-1.946,0.26c-0.476,0-0.938-0.044-1.389-0.131c0.939,2.934,3.665,5.07,6.898,5.126
			c-2.528,1.982-5.715,3.163-9.173,3.163c-0.596,0-1.185-0.033-1.762-0.102c3.269,2.094,7.151,3.317,11.32,3.317
			c13.589,0,21.015-11.252,21.015-21.014c0-0.321-0.006-0.641-0.021-0.955C415.818,393.563,417.073,392.262,418.06,390.782"/>
	</g>
</g>
</svg>
