<?xml version="1.0" encoding="utf-8"?>
<!-- Generator: Adobe Illustrator 15.1.0, SVG Export Plug-In . SVG Version: 6.00 Build 0)  -->
<!DOCTYPE svg PUBLIC "-//W3C//DTD SVG 1.1//EN" "http://www.w3.org/Graphics/SVG/1.1/DTD/svg11.dtd">
<svg version="1.1" xmlns="http://www.w3.org/2000/svg" xmlns:xlink="http://www.w3.org/1999/xlink" x="0px" y="0px" width="600px"
	 height="1700px" viewBox="0 0 600 1700" enable-background="new 0 0 600 1700" xml:space="preserve">
<g id="background">
</g>
<g id="Icons">
	<g>
		<path fill="#FFFFFF" d="M200.015,541c-22.609,0-41.002-18.393-41.002-41.001c0-22.607,18.394-40.999,41.002-40.999
			c22.606,0,40.998,18.392,40.998,40.999C241.013,522.606,222.621,541,200.015,541z M200.015,461
			c-21.506,0-39.002,17.495-39.002,38.999c0,21.505,17.497,39.001,39.002,39.001c21.503,0,38.998-17.496,38.998-39.001
			C239.013,478.495,221.519,461,200.015,461z"/>
		<path fill="#FFFFFF" d="M207.379,487.84v6.859c-0.165,0.199-0.361,0.363-0.562,0.49c-0.219,0.127-0.379,0.198-0.526,0.198
			c-0.163,0-0.292-0.054-0.363-0.146c-0.092-0.107-0.128-0.251-0.128-0.47v-6.932h-1.852v7.548c0,0.546,0.11,0.944,0.327,1.216
			c0.216,0.274,0.545,0.399,0.962,0.399c0.363,0,0.708-0.089,1.088-0.271c0.362-0.2,0.709-0.471,1.053-0.854v0.999h1.853v-9.038
			H207.379z M201.734,488.277c-0.491-0.453-1.125-0.672-1.886-0.672c-0.835,0-1.506,0.219-2.015,0.636
			c-0.491,0.416-0.742,0.959-0.742,1.669v4.683c0,0.779,0.251,1.376,0.724,1.831c0.49,0.454,1.144,0.688,1.942,0.688
			c0.833,0,1.507-0.217,1.977-0.672c0.491-0.435,0.728-1.033,0.728-1.812v-4.663C202.462,489.274,202.207,488.712,201.734,488.277z
			 M200.574,494.772c0,0.236-0.073,0.417-0.218,0.562c-0.144,0.146-0.344,0.218-0.598,0.218c-0.236,0-0.435-0.071-0.563-0.218
			c-0.125-0.127-0.2-0.326-0.2-0.562v-4.936c0-0.199,0.075-0.361,0.218-0.47c0.127-0.129,0.327-0.183,0.545-0.183
			c0.235,0,0.437,0.054,0.598,0.183c0.146,0.109,0.218,0.271,0.218,0.47V494.772z M194.839,484.628l-1.287,4.901h-0.146
			l-1.343-4.901h-2.103l2.484,7.404v4.846h2.087v-5.081l2.413-7.169H194.839z M209.267,506.205c0.106,0.146,0.161,0.397,0.161,0.725
			v0.833h-1.433v-0.833c0-0.328,0.037-0.58,0.166-0.725c0.106-0.146,0.289-0.238,0.562-0.238
			C208.975,505.967,209.157,506.059,209.267,506.205z M203.568,506.167c-0.109-0.146-0.291-0.218-0.508-0.218
			c-0.109,0-0.236,0.018-0.345,0.072c-0.109,0.055-0.234,0.146-0.343,0.256v5.116c0.126,0.127,0.271,0.236,0.398,0.29
			c0.127,0.055,0.254,0.092,0.38,0.092c0.219,0,0.363-0.055,0.453-0.184c0.092-0.106,0.146-0.29,0.146-0.562v-4.244
			C203.749,506.512,203.695,506.314,203.568,506.167z M203.568,506.167c-0.109-0.146-0.291-0.218-0.508-0.218
			c-0.109,0-0.236,0.018-0.345,0.072c-0.109,0.055-0.234,0.146-0.343,0.256v5.116c0.126,0.127,0.271,0.236,0.398,0.29
			c0.127,0.055,0.254,0.092,0.38,0.092c0.219,0,0.363-0.055,0.453-0.184c0.092-0.106,0.146-0.29,0.146-0.562v-4.244
			C203.749,506.512,203.695,506.314,203.568,506.167z M212.877,499.834h-25.729c-2.814,0-5.136,2.324-5.136,5.153v5.246
			c0,2.829,2.321,5.135,5.136,5.135h25.729c2.812,0,5.136-2.306,5.136-5.135v-5.246
			C218.013,502.158,215.689,499.834,212.877,499.834z M194.08,503.445h-1.924v9.508h-1.853v-9.508h-1.904v-1.613h5.681V503.445z
			 M199.484,512.954h-1.65v-0.907c-0.292,0.343-0.617,0.597-0.942,0.762c-0.328,0.183-0.637,0.273-0.947,0.273
			c-0.378,0-0.669-0.128-0.869-0.381c-0.183-0.237-0.272-0.599-0.272-1.09v-6.875h1.632v6.313c0,0.18,0.037,0.328,0.11,0.418
			c0.055,0.09,0.181,0.125,0.329,0.125c0.124,0,0.271-0.053,0.454-0.18c0.197-0.11,0.362-0.255,0.506-0.436v-6.241h1.65V512.954z
			 M205.436,511.249c0,0.581-0.125,1.033-0.38,1.343c-0.252,0.307-0.635,0.471-1.122,0.471c-0.33,0-0.602-0.055-0.855-0.18
			c-0.254-0.129-0.49-0.309-0.706-0.563v0.635h-1.651v-11.121h1.651v3.572c0.216-0.234,0.452-0.434,0.706-0.562
			c0.253-0.125,0.508-0.197,0.762-0.197c0.508,0,0.909,0.18,1.179,0.526c0.275,0.344,0.417,0.851,0.417,1.524V511.249z
			 M211.135,509.053h-3.141v1.542c0,0.435,0.037,0.728,0.148,0.891c0.105,0.18,0.307,0.252,0.562,0.252
			c0.27,0,0.452-0.072,0.562-0.217c0.106-0.127,0.161-0.455,0.161-0.926v-0.381h1.708v0.416c0,0.855-0.217,1.488-0.637,1.907
			c-0.397,0.435-1.017,0.635-1.83,0.635c-0.746,0-1.326-0.218-1.744-0.671c-0.417-0.454-0.634-1.071-0.634-1.871v-3.681
			c0-0.709,0.235-1.29,0.708-1.742c0.452-0.437,1.051-0.672,1.794-0.672c0.746,0,1.327,0.218,1.723,0.636
			c0.403,0.417,0.62,0.997,0.62,1.778V509.053z M203.06,505.949c-0.109,0-0.236,0.018-0.345,0.072
			c-0.109,0.055-0.234,0.146-0.343,0.256v5.116c0.126,0.127,0.271,0.236,0.398,0.29c0.127,0.055,0.254,0.092,0.38,0.092
			c0.219,0,0.363-0.055,0.453-0.184c0.092-0.106,0.146-0.29,0.146-0.562v-4.244c0-0.274-0.054-0.472-0.181-0.618
			C203.459,506.021,203.277,505.949,203.06,505.949z M203.568,506.167c-0.109-0.146-0.291-0.218-0.508-0.218
			c-0.109,0-0.236,0.018-0.345,0.072c-0.109,0.055-0.234,0.146-0.343,0.256v5.116c0.126,0.127,0.271,0.236,0.398,0.29
			c0.127,0.055,0.254,0.092,0.38,0.092c0.219,0,0.363-0.055,0.453-0.184c0.092-0.106,0.146-0.29,0.146-0.562v-4.244
			C203.749,506.512,203.695,506.314,203.568,506.167z M203.568,506.167c-0.109-0.146-0.291-0.218-0.508-0.218
			c-0.109,0-0.236,0.018-0.345,0.072c-0.109,0.055-0.234,0.146-0.343,0.256v5.116c0.126,0.127,0.271,0.236,0.398,0.29
			c0.127,0.055,0.254,0.092,0.38,0.092c0.219,0,0.363-0.055,0.453-0.184c0.092-0.106,0.146-0.29,0.146-0.562v-4.244
			C203.749,506.512,203.695,506.314,203.568,506.167z"/>
	</g>
</g>
</svg>
