<?xml version="1.0" encoding="utf-8"?>
<!-- Generator: Adobe Illustrator 15.1.0, SVG Export Plug-In . SVG Version: 6.00 Build 0)  -->
<!DOCTYPE svg PUBLIC "-//W3C//DTD SVG 1.1//EN" "http://www.w3.org/Graphics/SVG/1.1/DTD/svg11.dtd">
<svg version="1.1" id="Layer_1" xmlns="http://www.w3.org/2000/svg" xmlns:xlink="http://www.w3.org/1999/xlink" x="0px" y="0px"
	 width="144px" height="144px" viewBox="0 0 144 144" enable-background="new 0 0 144 144" xml:space="preserve">
<g>
	<path fill="#004D38" d="M60.36,32.167c0,2.192-1.78,3.972-3.972,3.972c-2.196,0-3.977-1.78-3.977-3.972
		c0-2.195,1.78-3.976,3.977-3.976C58.581,28.191,60.36,29.972,60.36,32.167z"/>
	<circle fill="#004D38" cx="66.03" cy="40.041" r="11.408"/>
	<circle fill="#004D38" cx="60.658" cy="26.425" r="6.036"/>
	<circle fill="#004D38" cx="75.23" cy="25.984" r="10.744"/>
	<path fill="#004D38" d="M80.53,33.344c0,4.065-3.296,7.361-7.365,7.361c-4.065,0-7.361-3.296-7.361-7.361s3.295-7.362,7.361-7.362
		C77.234,25.982,80.53,29.279,80.53,33.344z"/>
	<circle fill="#004D38" cx="77.583" cy="38.789" r="5.153"/>
	<circle fill="#004D38" cx="82.146" cy="28.634" r="4.858"/>
	<circle fill="#004D38" cx="74.491" cy="44.677" r="3.828"/>
	<circle fill="#004D38" cx="76.555" cy="13.178" r="3.83"/>
	<circle fill="#004D38" cx="80.528" cy="16.859" r="3.236"/>
</g>
<g display="none">
	<circle display="inline" fill="#231F20" cx="120.677" cy="70.985" r="1.927"/>
	<circle display="inline" fill="#231F20" cx="125.35" cy="74.802" r="5.53"/>
	<circle display="inline" fill="#231F20" cx="122.747" cy="68.204" r="2.926"/>
	<circle display="inline" fill="#231F20" cx="129.811" cy="67.989" r="5.207"/>
	<circle display="inline" fill="#231F20" cx="128.81" cy="71.557" r="3.568"/>
	<circle display="inline" fill="#231F20" cx="130.951" cy="74.195" r="2.498"/>
	<circle display="inline" fill="#231F20" cx="133.163" cy="69.274" r="2.354"/>
	<circle display="inline" fill="#231F20" cx="129.453" cy="77.05" r="1.856"/>
	<circle display="inline" fill="#231F20" cx="130.452" cy="61.782" r="1.856"/>
	<circle display="inline" fill="#231F20" cx="132.378" cy="63.566" r="1.567"/>
</g>
<g display="none">
	<circle display="inline" fill="#231F20" cx="5.376" cy="70.985" r="1.927"/>
	<circle display="inline" fill="#231F20" cx="10.049" cy="74.802" r="5.53"/>
	<circle display="inline" fill="#231F20" cx="7.445" cy="68.204" r="2.926"/>
	<circle display="inline" fill="#231F20" cx="14.508" cy="67.989" r="5.207"/>
	<circle display="inline" fill="#231F20" cx="13.508" cy="71.557" r="3.568"/>
	<circle display="inline" fill="#231F20" cx="15.649" cy="74.195" r="2.498"/>
	<circle display="inline" fill="#231F20" cx="17.861" cy="69.274" r="2.354"/>
	<circle display="inline" fill="#231F20" cx="14.151" cy="77.05" r="1.857"/>
	<circle display="inline" fill="#231F20" cx="15.15" cy="61.782" r="1.856"/>
	<circle display="inline" fill="#231F20" cx="17.076" cy="63.566" r="1.568"/>
</g>
<g display="none">
	<path display="inline" fill="#3A352C" d="M103.473,59.506c0,4.573-3.708,8.28-8.277,8.28c-4.573,0-8.28-3.707-8.28-8.28
		c0-4.571,3.707-8.278,8.28-8.278C99.765,51.228,103.473,54.935,103.473,59.506z"/>
	<circle display="inline" fill="#3A352C" cx="91.508" cy="52.405" r="4.38"/>
	<circle display="inline" fill="#3A352C" cx="99.947" cy="52.189" r="7.794"/>
	<circle display="inline" fill="#3A352C" cx="97.277" cy="65.223" r="5.342"/>
	<circle display="inline" fill="#3A352C" cx="107.102" cy="60.2" r="5.343"/>
	<path display="inline" fill="#3A352C" d="M107.212,61.271c0,2.949-2.389,5.341-5.343,5.341c-2.949,0-5.341-2.392-5.341-5.341
		c0-2.951,2.392-5.343,5.341-5.343C104.823,55.928,107.212,58.32,107.212,61.271z"/>
	<circle display="inline" fill="#3A352C" cx="89" cy="62.871" r="2.778"/>
	<circle display="inline" fill="#3A352C" cx="102.4" cy="60.307" r="2.778"/>
	<circle display="inline" fill="#3A352C" cx="105.177" cy="54.646" r="5.664"/>
	<circle display="inline" fill="#3A352C" cx="95.994" cy="45.462" r="2.349"/>
	<circle display="inline" fill="#3A352C" cx="104.967" cy="47.598" r="2.348"/>
</g>
<g display="none">
	<circle display="inline" fill="#3A352C" cx="33.821" cy="58.829" r="8.278"/>
	<path display="inline" fill="#3A352C" d="M34.515,51.729c0,2.418-1.961,4.378-4.381,4.378c-2.417,0-4.38-1.96-4.38-4.378
		c0-2.418,1.964-4.381,4.38-4.381C32.554,47.347,34.515,49.31,34.515,51.729z"/>
	<circle display="inline" fill="#3A352C" cx="38.573" cy="51.512" r="7.795"/>
	<circle display="inline" fill="#3A352C" cx="35.903" cy="64.545" r="5.342"/>
	<circle display="inline" fill="#3A352C" cx="45.728" cy="59.524" r="5.343"/>
	<circle display="inline" fill="#3A352C" cx="40.497" cy="60.594" r="5.342"/>
	<circle display="inline" fill="#3A352C" cx="27.626" cy="62.194" r="2.778"/>
	<circle display="inline" fill="#3A352C" cx="41.027" cy="59.629" r="2.779"/>
	<circle display="inline" fill="#3A352C" cx="43.804" cy="53.969" r="5.663"/>
	<circle display="inline" fill="#3A352C" cx="34.62" cy="44.785" r="2.348"/>
	<circle display="inline" fill="#3A352C" cx="43.593" cy="46.922" r="2.348"/>
</g>
</svg>
