<?xml version="1.0" encoding="utf-8"?>
<!-- Generator: Adobe Illustrator 15.1.0, SVG Export Plug-In . SVG Version: 6.00 Build 0)  -->
<!DOCTYPE svg PUBLIC "-//W3C//DTD SVG 1.1//EN" "http://www.w3.org/Graphics/SVG/1.1/DTD/svg11.dtd">
<svg version="1.1" id="Layer_1" xmlns="http://www.w3.org/2000/svg" xmlns:xlink="http://www.w3.org/1999/xlink" x="0px" y="0px"
	 width="144px" height="144px" viewBox="0 0 144 144" enable-background="new 0 0 144 144" xml:space="preserve">
<g>
	<path fill="#004D38" d="M94.827,45.672c0,3.49,2.833,6.323,6.322,6.323c3.497,0,6.331-2.833,6.331-6.323
		c0-3.494-2.834-6.329-6.331-6.329C97.66,39.343,94.827,42.178,94.827,45.672z"/>
	<circle fill="#004D38" cx="85.802" cy="58.207" r="18.16"/>
	<path fill="#004D38" d="M84.745,36.532c0,5.307,4.306,9.609,9.609,9.609c5.305,0,9.607-4.302,9.607-9.609
		c0-5.304-4.303-9.608-9.607-9.608C89.051,26.924,84.745,31.228,84.745,36.532z"/>
	<circle fill="#004D38" cx="71.156" cy="35.83" r="17.103"/>
	<path fill="#004D38" d="M62.719,47.546c0,6.471,5.247,11.718,11.725,11.718c6.472,0,11.719-5.247,11.719-11.718
		c0-6.471-5.247-11.719-11.719-11.719C67.966,35.827,62.719,41.075,62.719,47.546z"/>
	<path fill="#004D38" d="M59.207,56.213c0,4.533,3.672,8.206,8.202,8.206c4.533,0,8.205-3.673,8.205-8.206
		c0-4.528-3.672-8.204-8.205-8.204C62.879,48.009,59.207,51.685,59.207,56.213z"/>
	<circle fill="#004D38" cx="60.146" cy="40.047" r="7.734"/>
	<circle fill="#004D38" cx="72.333" cy="65.586" r="6.094"/>
	<path fill="#004D38" d="M62.951,15.443c0,3.368,2.731,6.091,6.097,6.091s6.096-2.723,6.096-6.091c0-3.367-2.73-6.092-6.096-6.092
		S62.951,12.076,62.951,15.443z"/>
	<path fill="#004D38" d="M57.572,21.303c0,2.847,2.306,5.155,5.147,5.155c2.845,0,5.155-2.308,5.155-5.155
		c0-2.85-2.31-5.156-5.155-5.156C59.877,16.147,57.572,18.454,57.572,21.303z"/>
</g>
<g display="none">
	<circle display="inline" fill="#231F20" cx="120.677" cy="70.985" r="1.927"/>
	<circle display="inline" fill="#231F20" cx="125.35" cy="74.802" r="5.53"/>
	<circle display="inline" fill="#231F20" cx="122.747" cy="68.204" r="2.926"/>
	<circle display="inline" fill="#231F20" cx="129.811" cy="67.989" r="5.207"/>
	<circle display="inline" fill="#231F20" cx="128.81" cy="71.557" r="3.568"/>
	<circle display="inline" fill="#231F20" cx="130.951" cy="74.195" r="2.498"/>
	<circle display="inline" fill="#231F20" cx="133.163" cy="69.274" r="2.354"/>
	<circle display="inline" fill="#231F20" cx="129.453" cy="77.05" r="1.856"/>
	<circle display="inline" fill="#231F20" cx="130.452" cy="61.782" r="1.856"/>
	<circle display="inline" fill="#231F20" cx="132.378" cy="63.566" r="1.567"/>
</g>
<g display="none">
	<circle display="inline" fill="#231F20" cx="5.376" cy="70.985" r="1.927"/>
	<circle display="inline" fill="#231F20" cx="10.049" cy="74.802" r="5.53"/>
	<circle display="inline" fill="#231F20" cx="7.445" cy="68.204" r="2.926"/>
	<circle display="inline" fill="#231F20" cx="14.508" cy="67.989" r="5.207"/>
	<circle display="inline" fill="#231F20" cx="13.508" cy="71.557" r="3.568"/>
	<circle display="inline" fill="#231F20" cx="15.649" cy="74.195" r="2.498"/>
	<circle display="inline" fill="#231F20" cx="17.861" cy="69.274" r="2.354"/>
	<circle display="inline" fill="#231F20" cx="14.151" cy="77.05" r="1.857"/>
	<circle display="inline" fill="#231F20" cx="15.15" cy="61.782" r="1.856"/>
	<circle display="inline" fill="#231F20" cx="17.076" cy="63.566" r="1.568"/>
</g>
<g display="none">
	<path display="inline" fill="#3A352C" d="M103.473,59.506c0,4.573-3.708,8.28-8.277,8.28c-4.573,0-8.28-3.707-8.28-8.28
		c0-4.571,3.707-8.278,8.28-8.278C99.765,51.228,103.473,54.935,103.473,59.506z"/>
	<circle display="inline" fill="#3A352C" cx="91.508" cy="52.405" r="4.38"/>
	<circle display="inline" fill="#3A352C" cx="99.947" cy="52.189" r="7.794"/>
	<circle display="inline" fill="#3A352C" cx="97.277" cy="65.223" r="5.342"/>
	<circle display="inline" fill="#3A352C" cx="107.102" cy="60.2" r="5.343"/>
	<path display="inline" fill="#3A352C" d="M107.212,61.271c0,2.949-2.389,5.341-5.343,5.341c-2.949,0-5.341-2.392-5.341-5.341
		c0-2.951,2.392-5.343,5.341-5.343C104.823,55.928,107.212,58.32,107.212,61.271z"/>
	<circle display="inline" fill="#3A352C" cx="89" cy="62.871" r="2.778"/>
	<circle display="inline" fill="#3A352C" cx="102.4" cy="60.307" r="2.778"/>
	<circle display="inline" fill="#3A352C" cx="105.177" cy="54.646" r="5.664"/>
	<circle display="inline" fill="#3A352C" cx="95.994" cy="45.462" r="2.349"/>
	<circle display="inline" fill="#3A352C" cx="104.967" cy="47.598" r="2.348"/>
</g>
<g display="none">
	<circle display="inline" fill="#3A352C" cx="33.821" cy="58.829" r="8.278"/>
	<path display="inline" fill="#3A352C" d="M34.515,51.729c0,2.418-1.961,4.378-4.381,4.378c-2.417,0-4.38-1.96-4.38-4.378
		c0-2.418,1.964-4.381,4.38-4.381C32.554,47.347,34.515,49.31,34.515,51.729z"/>
	<circle display="inline" fill="#3A352C" cx="38.573" cy="51.512" r="7.795"/>
	<circle display="inline" fill="#3A352C" cx="35.903" cy="64.545" r="5.342"/>
	<circle display="inline" fill="#3A352C" cx="45.728" cy="59.524" r="5.343"/>
	<circle display="inline" fill="#3A352C" cx="40.497" cy="60.594" r="5.342"/>
	<circle display="inline" fill="#3A352C" cx="27.626" cy="62.194" r="2.778"/>
	<circle display="inline" fill="#3A352C" cx="41.027" cy="59.629" r="2.779"/>
	<circle display="inline" fill="#3A352C" cx="43.804" cy="53.969" r="5.663"/>
	<circle display="inline" fill="#3A352C" cx="34.62" cy="44.785" r="2.348"/>
	<circle display="inline" fill="#3A352C" cx="43.593" cy="46.922" r="2.348"/>
</g>
</svg>
