<?xml version="1.0" encoding="utf-8"?>
<!-- Generator: Adobe Illustrator 15.1.0, SVG Export Plug-In . SVG Version: 6.00 Build 0)  -->
<!DOCTYPE svg PUBLIC "-//W3C//DTD SVG 1.1//EN" "http://www.w3.org/Graphics/SVG/1.1/DTD/svg11.dtd">
<svg version="1.1" xmlns="http://www.w3.org/2000/svg" xmlns:xlink="http://www.w3.org/1999/xlink" x="0px" y="0px" width="600px"
	 height="1700px" viewBox="0 0 600 1700" enable-background="new 0 0 600 1700" xml:space="preserve">
<g id="background">
</g>
<g id="Icons">
	<g>
		<path fill="#FFFFFF" d="M400.06,1041c-22.607,0-41-18.393-41-41s18.393-41,41-41s41,18.393,41,41S422.667,1041,400.06,1041z
			 M400.06,961c-21.505,0-39,17.495-39,39s17.495,39,39,39s39-17.495,39-39S421.564,961,400.06,961z"/>
		<path fill="#FFFFFF" d="M389.985,1014.907h-7.021v-22.475h7.021V1014.907z M386.296,989.621h-0.052
			c-2.538,0-4.185-1.721-4.185-3.897c0-2.216,1.694-3.9,4.287-3.9c2.586,0,4.178,1.681,4.229,3.896
			C390.576,987.896,388.933,989.621,386.296,989.621z M418.06,1014.907h-7.959v-11.632c0-3.044-1.242-5.12-3.979-5.12
			c-2.093,0-3.256,1.4-3.799,2.755c-0.206,0.484-0.172,1.157-0.172,1.835v12.162h-7.883c0,0,0.104-20.602,0-22.475h7.883v3.524
			c0.466-1.54,2.984-3.74,7.003-3.74c4.987,0,8.906,3.231,8.906,10.193V1014.907z"/>
	</g>
</g>
</svg>
